<svg width="132" height="41" viewBox="0 0 132 41" fill="none" xmlns="http://www.w3.org/2000/svg">
<mask id="path-1-outside-1_1_1035" maskUnits="userSpaceOnUse" x="41.7522" y="20.7164" width="90" height="20" fill="black">
<rect fill="white" x="41.7522" y="20.7164" width="90" height="20"/>
<path d="M49.4705 26.5622C51.2842 26.5622 52.626 26.8853 53.4959 27.5314C54.3657 28.1775 54.8006 29.2068 54.8006 30.6192V38.8459H53.0239L52.552 37.133H52.4409C52.0153 37.5687 51.5711 37.9369 51.1084 38.2374C50.6642 38.5229 50.146 38.7332 49.5538 38.8685C48.98 39.0037 48.2767 39.0713 47.4439 39.0713C46.5555 39.0713 45.7505 38.9436 45.0287 38.6882C44.3254 38.4327 43.7702 38.042 43.363 37.5161C42.9558 36.9752 42.7522 36.299 42.7522 35.4876C42.7522 34.2856 43.3352 33.3615 44.5012 32.7154C45.6672 32.0542 47.4624 31.6936 49.8869 31.6335L52.4132 31.5659V30.8446C52.4132 29.8379 52.1448 29.1392 51.6081 28.7485C51.0714 28.3578 50.3126 28.1625 49.3317 28.1625C48.5544 28.1625 47.8141 28.2602 47.1108 28.4555C46.4075 28.6358 45.7505 28.8462 45.1397 29.0866L44.3902 27.599C45.0379 27.3135 45.806 27.0731 46.6943 26.8778C47.5827 26.6674 48.5081 26.5622 49.4705 26.5622ZM50.1923 33.0084C48.3415 33.0685 47.0552 33.3089 46.3335 33.7296C45.6302 34.1503 45.2785 34.7439 45.2785 35.5102C45.2785 36.1863 45.5284 36.6822 46.0281 36.9977C46.5463 37.3133 47.2033 37.4711 47.9991 37.4711C49.2576 37.4711 50.3033 37.1931 51.1362 36.6371C51.969 36.0661 52.3854 35.1946 52.3854 34.0226V32.9407L50.1923 33.0084Z"/>
<path d="M66.5589 26.5397C68.3356 26.5397 69.6774 26.8928 70.5842 27.599C71.4911 28.2902 71.9445 29.4172 71.9445 30.9799V38.8459H69.5293V31.1151C69.5293 30.1384 69.261 29.4097 68.7242 28.9288C68.1875 28.448 67.3454 28.2076 66.198 28.2076C64.5508 28.2076 63.4126 28.5832 62.7833 29.3345C62.1541 30.0858 61.8394 31.1677 61.8394 32.5801V38.8459H59.3964V26.7651H61.3675L61.7284 28.4104H61.8672C62.2003 27.9897 62.6075 27.6441 63.0887 27.3736C63.5884 27.0881 64.1344 26.8778 64.7266 26.7426C65.3189 26.6073 65.9296 26.5397 66.5589 26.5397Z"/>
<path d="M86.1629 38.8459H75.2805V37.5387L83.2757 28.2977H75.7524V26.7651H85.9686V28.2527L78.0843 37.3133H86.1629V38.8459Z"/>
<path d="M95.3443 26.5397C96.6213 26.5397 97.7132 26.7651 98.6201 27.2159C99.5455 27.6666 100.249 28.3052 100.73 29.1317C101.23 29.9431 101.48 30.8972 101.48 31.9941V33.1887H91.2911C91.3281 34.556 91.7538 35.6003 92.5681 36.3216C93.401 37.0278 94.5577 37.3809 96.0383 37.3809C96.9822 37.3809 97.815 37.3133 98.5368 37.178C99.2771 37.0278 100.036 36.8174 100.813 36.547V38.2825C100.054 38.5529 99.3049 38.7483 98.5646 38.8685C97.8243 39.0037 96.9452 39.0713 95.9273 39.0713C94.5207 39.0713 93.2714 38.8384 92.1795 38.3726C91.1061 37.9068 90.264 37.2156 89.6532 36.299C89.061 35.3674 88.7649 34.233 88.7649 32.8957C88.7649 31.5734 89.0332 30.4389 89.5699 29.4923C90.1252 28.5457 90.8932 27.8169 91.8741 27.306C92.8735 26.7951 94.0302 26.5397 95.3443 26.5397ZM95.3165 28.1625C94.1505 28.1625 93.2252 28.4705 92.5404 29.0866C91.8741 29.6876 91.4762 30.5291 91.3467 31.6109H98.9255C98.9255 30.9198 98.7959 30.3187 98.5368 29.8078C98.2777 29.297 97.8798 28.8988 97.3431 28.6133C96.8249 28.3128 96.1494 28.1625 95.3165 28.1625Z"/>
<path d="M107.711 38.8459H105.268V21.7164H107.711V38.8459Z"/>
<path d="M114.868 26.7651V38.8459H112.425V26.7651H114.868ZM113.674 22.2348C114.044 22.2348 114.368 22.34 114.646 22.5503C114.942 22.7457 115.09 23.0612 115.09 23.497C115.09 23.9177 114.942 24.2332 114.646 24.4436C114.368 24.654 114.044 24.7591 113.674 24.7591C113.267 24.7591 112.925 24.654 112.647 24.4436C112.369 24.2332 112.231 23.9177 112.231 23.497C112.231 23.0612 112.369 22.7457 112.647 22.5503C112.925 22.34 113.267 22.2348 113.674 22.2348Z"/>
<path d="M125.218 26.5622C127.031 26.5622 128.373 26.8853 129.243 27.5314C130.113 28.1775 130.548 29.2068 130.548 30.6192V38.8459H128.771L128.299 37.133H128.188C127.762 37.5687 127.318 37.9369 126.856 38.2374C126.411 38.5229 125.893 38.7332 125.301 38.8685C124.727 39.0037 124.024 39.0713 123.191 39.0713C122.303 39.0713 121.498 38.9436 120.776 38.6882C120.073 38.4327 119.517 38.042 119.11 37.5161C118.703 36.9752 118.499 36.299 118.499 35.4876C118.499 34.2856 119.082 33.3615 120.248 32.7154C121.414 32.0542 123.21 31.6936 125.634 31.6335L128.16 31.5659V30.8446C128.16 29.8379 127.892 29.1392 127.355 28.7485C126.819 28.3578 126.06 28.1625 125.079 28.1625C124.301 28.1625 123.561 28.2602 122.858 28.4555C122.155 28.6358 121.498 28.8462 120.887 29.0866L120.137 27.599C120.785 27.3135 121.553 27.0731 122.441 26.8778C123.33 26.6674 124.255 26.5622 125.218 26.5622ZM125.939 33.0084C124.089 33.0685 122.802 33.3089 122.081 33.7296C121.377 34.1503 121.026 34.7439 121.026 35.5102C121.026 36.1863 121.276 36.6822 121.775 36.9977C122.293 37.3133 122.95 37.4711 123.746 37.4711C125.005 37.4711 126.05 37.1931 126.883 36.6371C127.716 36.0661 128.133 35.1946 128.133 34.0226V32.9407L125.939 33.0084Z"/>
</mask>
<path d="M49.4705 26.5622C51.2842 26.5622 52.626 26.8853 53.4959 27.5314C54.3657 28.1775 54.8006 29.2068 54.8006 30.6192V38.8459H53.0239L52.552 37.133H52.4409C52.0153 37.5687 51.5711 37.9369 51.1084 38.2374C50.6642 38.5229 50.146 38.7332 49.5538 38.8685C48.98 39.0037 48.2767 39.0713 47.4439 39.0713C46.5555 39.0713 45.7505 38.9436 45.0287 38.6882C44.3254 38.4327 43.7702 38.042 43.363 37.5161C42.9558 36.9752 42.7522 36.299 42.7522 35.4876C42.7522 34.2856 43.3352 33.3615 44.5012 32.7154C45.6672 32.0542 47.4624 31.6936 49.8869 31.6335L52.4132 31.5659V30.8446C52.4132 29.8379 52.1448 29.1392 51.6081 28.7485C51.0714 28.3578 50.3126 28.1625 49.3317 28.1625C48.5544 28.1625 47.8141 28.2602 47.1108 28.4555C46.4075 28.6358 45.7505 28.8462 45.1397 29.0866L44.3902 27.599C45.0379 27.3135 45.806 27.0731 46.6943 26.8778C47.5827 26.6674 48.5081 26.5622 49.4705 26.5622ZM50.1923 33.0084C48.3415 33.0685 47.0552 33.3089 46.3335 33.7296C45.6302 34.1503 45.2785 34.7439 45.2785 35.5102C45.2785 36.1863 45.5284 36.6822 46.0281 36.9977C46.5463 37.3133 47.2033 37.4711 47.9991 37.4711C49.2576 37.4711 50.3033 37.1931 51.1362 36.6371C51.969 36.0661 52.3854 35.1946 52.3854 34.0226V32.9407L50.1923 33.0084Z" fill="#005F56"/>
<path d="M66.5589 26.5397C68.3356 26.5397 69.6774 26.8928 70.5842 27.599C71.4911 28.2902 71.9445 29.4172 71.9445 30.9799V38.8459H69.5293V31.1151C69.5293 30.1384 69.261 29.4097 68.7242 28.9288C68.1875 28.448 67.3454 28.2076 66.198 28.2076C64.5508 28.2076 63.4126 28.5832 62.7833 29.3345C62.1541 30.0858 61.8394 31.1677 61.8394 32.5801V38.8459H59.3964V26.7651H61.3675L61.7284 28.4104H61.8672C62.2003 27.9897 62.6075 27.6441 63.0887 27.3736C63.5884 27.0881 64.1344 26.8778 64.7266 26.7426C65.3189 26.6073 65.9296 26.5397 66.5589 26.5397Z" fill="#005F56"/>
<path d="M86.1629 38.8459H75.2805V37.5387L83.2757 28.2977H75.7524V26.7651H85.9686V28.2527L78.0843 37.3133H86.1629V38.8459Z" fill="#005F56"/>
<path d="M95.3443 26.5397C96.6213 26.5397 97.7132 26.7651 98.6201 27.2159C99.5455 27.6666 100.249 28.3052 100.73 29.1317C101.23 29.9431 101.48 30.8972 101.48 31.9941V33.1887H91.2911C91.3281 34.556 91.7538 35.6003 92.5681 36.3216C93.401 37.0278 94.5577 37.3809 96.0383 37.3809C96.9822 37.3809 97.815 37.3133 98.5368 37.178C99.2771 37.0278 100.036 36.8174 100.813 36.547V38.2825C100.054 38.5529 99.3049 38.7483 98.5646 38.8685C97.8243 39.0037 96.9452 39.0713 95.9273 39.0713C94.5207 39.0713 93.2714 38.8384 92.1795 38.3726C91.1061 37.9068 90.264 37.2156 89.6532 36.299C89.061 35.3674 88.7649 34.233 88.7649 32.8957C88.7649 31.5734 89.0332 30.4389 89.5699 29.4923C90.1252 28.5457 90.8932 27.8169 91.8741 27.306C92.8735 26.7951 94.0302 26.5397 95.3443 26.5397ZM95.3165 28.1625C94.1505 28.1625 93.2252 28.4705 92.5404 29.0866C91.8741 29.6876 91.4762 30.5291 91.3467 31.6109H98.9255C98.9255 30.9198 98.7959 30.3187 98.5368 29.8078C98.2777 29.297 97.8798 28.8988 97.3431 28.6133C96.8249 28.3128 96.1494 28.1625 95.3165 28.1625Z" fill="#005F56"/>
<path d="M107.711 38.8459H105.268V21.7164H107.711V38.8459Z" fill="#005F56"/>
<path d="M114.868 26.7651V38.8459H112.425V26.7651H114.868ZM113.674 22.2348C114.044 22.2348 114.368 22.34 114.646 22.5503C114.942 22.7457 115.09 23.0612 115.09 23.497C115.09 23.9177 114.942 24.2332 114.646 24.4436C114.368 24.654 114.044 24.7591 113.674 24.7591C113.267 24.7591 112.925 24.654 112.647 24.4436C112.369 24.2332 112.231 23.9177 112.231 23.497C112.231 23.0612 112.369 22.7457 112.647 22.5503C112.925 22.34 113.267 22.2348 113.674 22.2348Z" fill="#005F56"/>
<path d="M125.218 26.5622C127.031 26.5622 128.373 26.8853 129.243 27.5314C130.113 28.1775 130.548 29.2068 130.548 30.6192V38.8459H128.771L128.299 37.133H128.188C127.762 37.5687 127.318 37.9369 126.856 38.2374C126.411 38.5229 125.893 38.7332 125.301 38.8685C124.727 39.0037 124.024 39.0713 123.191 39.0713C122.303 39.0713 121.498 38.9436 120.776 38.6882C120.073 38.4327 119.517 38.042 119.11 37.5161C118.703 36.9752 118.499 36.299 118.499 35.4876C118.499 34.2856 119.082 33.3615 120.248 32.7154C121.414 32.0542 123.21 31.6936 125.634 31.6335L128.16 31.5659V30.8446C128.16 29.8379 127.892 29.1392 127.355 28.7485C126.819 28.3578 126.06 28.1625 125.079 28.1625C124.301 28.1625 123.561 28.2602 122.858 28.4555C122.155 28.6358 121.498 28.8462 120.887 29.0866L120.137 27.599C120.785 27.3135 121.553 27.0731 122.441 26.8778C123.33 26.6674 124.255 26.5622 125.218 26.5622ZM125.939 33.0084C124.089 33.0685 122.802 33.3089 122.081 33.7296C121.377 34.1503 121.026 34.7439 121.026 35.5102C121.026 36.1863 121.276 36.6822 121.775 36.9977C122.293 37.3133 122.95 37.4711 123.746 37.4711C125.005 37.4711 126.05 37.1931 126.883 36.6371C127.716 36.0661 128.133 35.1946 128.133 34.0226V32.9407L125.939 33.0084Z" fill="#005F56"/>
<path d="M49.4705 26.5622C51.2842 26.5622 52.626 26.8853 53.4959 27.5314C54.3657 28.1775 54.8006 29.2068 54.8006 30.6192V38.8459H53.0239L52.552 37.133H52.4409C52.0153 37.5687 51.5711 37.9369 51.1084 38.2374C50.6642 38.5229 50.146 38.7332 49.5538 38.8685C48.98 39.0037 48.2767 39.0713 47.4439 39.0713C46.5555 39.0713 45.7505 38.9436 45.0287 38.6882C44.3254 38.4327 43.7702 38.042 43.363 37.5161C42.9558 36.9752 42.7522 36.299 42.7522 35.4876C42.7522 34.2856 43.3352 33.3615 44.5012 32.7154C45.6672 32.0542 47.4624 31.6936 49.8869 31.6335L52.4132 31.5659V30.8446C52.4132 29.8379 52.1448 29.1392 51.6081 28.7485C51.0714 28.3578 50.3126 28.1625 49.3317 28.1625C48.5544 28.1625 47.8141 28.2602 47.1108 28.4555C46.4075 28.6358 45.7505 28.8462 45.1397 29.0866L44.3902 27.599C45.0379 27.3135 45.806 27.0731 46.6943 26.8778C47.5827 26.6674 48.5081 26.5622 49.4705 26.5622ZM50.1923 33.0084C48.3415 33.0685 47.0552 33.3089 46.3335 33.7296C45.6302 34.1503 45.2785 34.7439 45.2785 35.5102C45.2785 36.1863 45.5284 36.6822 46.0281 36.9977C46.5463 37.3133 47.2033 37.4711 47.9991 37.4711C49.2576 37.4711 50.3033 37.1931 51.1362 36.6371C51.969 36.0661 52.3854 35.1946 52.3854 34.0226V32.9407L50.1923 33.0084Z" stroke="#005F56" stroke-width="2" mask="url(#path-1-outside-1_1_1035)"/>
<path d="M66.5589 26.5397C68.3356 26.5397 69.6774 26.8928 70.5842 27.599C71.4911 28.2902 71.9445 29.4172 71.9445 30.9799V38.8459H69.5293V31.1151C69.5293 30.1384 69.261 29.4097 68.7242 28.9288C68.1875 28.448 67.3454 28.2076 66.198 28.2076C64.5508 28.2076 63.4126 28.5832 62.7833 29.3345C62.1541 30.0858 61.8394 31.1677 61.8394 32.5801V38.8459H59.3964V26.7651H61.3675L61.7284 28.4104H61.8672C62.2003 27.9897 62.6075 27.6441 63.0887 27.3736C63.5884 27.0881 64.1344 26.8778 64.7266 26.7426C65.3189 26.6073 65.9296 26.5397 66.5589 26.5397Z" stroke="#005F56" stroke-width="2" mask="url(#path-1-outside-1_1_1035)"/>
<path d="M86.1629 38.8459H75.2805V37.5387L83.2757 28.2977H75.7524V26.7651H85.9686V28.2527L78.0843 37.3133H86.1629V38.8459Z" stroke="#005F56" stroke-width="2" mask="url(#path-1-outside-1_1_1035)"/>
<path d="M95.3443 26.5397C96.6213 26.5397 97.7132 26.7651 98.6201 27.2159C99.5455 27.6666 100.249 28.3052 100.73 29.1317C101.23 29.9431 101.48 30.8972 101.48 31.9941V33.1887H91.2911C91.3281 34.556 91.7538 35.6003 92.5681 36.3216C93.401 37.0278 94.5577 37.3809 96.0383 37.3809C96.9822 37.3809 97.815 37.3133 98.5368 37.178C99.2771 37.0278 100.036 36.8174 100.813 36.547V38.2825C100.054 38.5529 99.3049 38.7483 98.5646 38.8685C97.8243 39.0037 96.9452 39.0713 95.9273 39.0713C94.5207 39.0713 93.2714 38.8384 92.1795 38.3726C91.1061 37.9068 90.264 37.2156 89.6532 36.299C89.061 35.3674 88.7649 34.233 88.7649 32.8957C88.7649 31.5734 89.0332 30.4389 89.5699 29.4923C90.1252 28.5457 90.8932 27.8169 91.8741 27.306C92.8735 26.7951 94.0302 26.5397 95.3443 26.5397ZM95.3165 28.1625C94.1505 28.1625 93.2252 28.4705 92.5404 29.0866C91.8741 29.6876 91.4762 30.5291 91.3467 31.6109H98.9255C98.9255 30.9198 98.7959 30.3187 98.5368 29.8078C98.2777 29.297 97.8798 28.8988 97.3431 28.6133C96.8249 28.3128 96.1494 28.1625 95.3165 28.1625Z" stroke="#005F56" stroke-width="2" mask="url(#path-1-outside-1_1_1035)"/>
<path d="M107.711 38.8459H105.268V21.7164H107.711V38.8459Z" stroke="#005F56" stroke-width="2" mask="url(#path-1-outside-1_1_1035)"/>
<path d="M114.868 26.7651V38.8459H112.425V26.7651H114.868ZM113.674 22.2348C114.044 22.2348 114.368 22.34 114.646 22.5503C114.942 22.7457 115.09 23.0612 115.09 23.497C115.09 23.9177 114.942 24.2332 114.646 24.4436C114.368 24.654 114.044 24.7591 113.674 24.7591C113.267 24.7591 112.925 24.654 112.647 24.4436C112.369 24.2332 112.231 23.9177 112.231 23.497C112.231 23.0612 112.369 22.7457 112.647 22.5503C112.925 22.34 113.267 22.2348 113.674 22.2348Z" stroke="#005F56" stroke-width="2" mask="url(#path-1-outside-1_1_1035)"/>
<path d="M125.218 26.5622C127.031 26.5622 128.373 26.8853 129.243 27.5314C130.113 28.1775 130.548 29.2068 130.548 30.6192V38.8459H128.771L128.299 37.133H128.188C127.762 37.5687 127.318 37.9369 126.856 38.2374C126.411 38.5229 125.893 38.7332 125.301 38.8685C124.727 39.0037 124.024 39.0713 123.191 39.0713C122.303 39.0713 121.498 38.9436 120.776 38.6882C120.073 38.4327 119.517 38.042 119.11 37.5161C118.703 36.9752 118.499 36.299 118.499 35.4876C118.499 34.2856 119.082 33.3615 120.248 32.7154C121.414 32.0542 123.21 31.6936 125.634 31.6335L128.16 31.5659V30.8446C128.16 29.8379 127.892 29.1392 127.355 28.7485C126.819 28.3578 126.06 28.1625 125.079 28.1625C124.301 28.1625 123.561 28.2602 122.858 28.4555C122.155 28.6358 121.498 28.8462 120.887 29.0866L120.137 27.599C120.785 27.3135 121.553 27.0731 122.441 26.8778C123.33 26.6674 124.255 26.5622 125.218 26.5622ZM125.939 33.0084C124.089 33.0685 122.802 33.3089 122.081 33.7296C121.377 34.1503 121.026 34.7439 121.026 35.5102C121.026 36.1863 121.276 36.6822 121.775 36.9977C122.293 37.3133 122.95 37.4711 123.746 37.4711C125.005 37.4711 126.05 37.1931 126.883 36.6371C127.716 36.0661 128.133 35.1946 128.133 34.0226V32.9407L125.939 33.0084Z" stroke="#005F56" stroke-width="2" mask="url(#path-1-outside-1_1_1035)"/>
<path d="M21.2963 26.7304C21.2892 26.526 21.281 26.327 21.2715 26.1333L27.5739 39.2874L27.71 39.5713L37.6418 26.7235M21.2963 26.7304C21.2963 26.7304 21.2963 26.7305 21.2963 26.7306L20.7966 26.7479L21.2963 26.7301C21.2963 26.7302 21.2963 26.7303 21.2963 26.7304ZM21.2963 26.7304C21.3172 27.3199 21.3276 27.9253 21.3276 28.5465V39.0713V39.5713H20.8276H18.2527H17.7527V39.0713V21.7164V21.2164H18.2527H22.3787H22.6934L22.8295 21.5L29.2692 34.9168L35.8276 21.4968L35.9646 21.2164H36.2768H40.3718H40.8718V21.7164V39.0713V39.5713H40.3718H37.6108H37.1108V39.0713V28.4007C37.1108 27.8275 37.1212 27.2622 37.1421 26.7048M37.1421 26.7048L37.6418 26.7235M37.1421 26.7048C37.1421 26.705 37.1421 26.7052 37.1421 26.7053L37.6418 26.7235M37.1421 26.7048C37.1493 26.5076 37.1578 26.3151 37.1675 26.1272L37.6489 25.1365L37.7349 25.1436M37.6418 26.7235C37.6625 26.1564 37.6935 25.6298 37.7349 25.1436M37.7349 25.1436L37.649 25.1363M37.7349 25.1436L37.649 25.1363M37.7349 25.1436C37.7411 25.0682 37.7471 24.9946 37.7528 24.9228L37.649 25.1363" fill="#005F56" stroke="#005F56"/>
<path d="M18.8285 38.0504H11.5131V21.923H6L27.0982 3.00024L48.1963 21.923H42.8953" stroke="#005F56" stroke-width="4"/>
</svg>
